<svg xmlns="http://www.w3.org/2000/svg" xmlns:xlink="http://www.w3.org/1999/xlink" contentStyleType="text/css" data-diagram-type="CLASS" height="516px" preserveAspectRatio="none" style="width:1150px;height:516px;background:#1B1B1B;" version="1.1" viewBox="0 0 1150 516" width="1150px" zoomAndPan="magnify"><defs/><g><rect fill="#1B1B1B" height="516" style="stroke:none;stroke-width:1;" width="1150" x="0" y="0"/><!--class Tarea--><g class="entity" data-entity="Tarea" data-source-line="2" data-uid="ent0002" id="entity_Tarea"><rect fill="#313139" height="96.8906" rx="2.5" ry="2.5" style="stroke:#E7E7E7;stroke-width:0.5;" width="188.0869" x="152.28" y="196.49"/><ellipse cx="222.0339" cy="212.49" fill="#352866" rx="11" ry="11" style="stroke:#E7E7E7;stroke-width:1;"/><path d="M217.9558,208.2556 L217.9558,206.0994 L225.3464,206.0994 L225.3464,208.2556 L222.8777,208.2556 L222.8777,216.3338 L225.3464,216.3338 L225.3464,218.49 L217.9558,218.49 L217.9558,216.3338 L220.4245,216.3338 L220.4245,208.2556 L217.9558,208.2556 Z " fill="#FFFFFF"/><text fill="#FFFFFF" font-family="sans-serif" font-size="14" font-style="italic" lengthAdjust="spacing" textLength="40.0791" x="242.5339" y="217.3367">Tarea</text><line style="stroke:#E7E7E7;stroke-width:0.5;" x1="153.28" x2="339.3669" y1="228.49" y2="228.49"/><line style="stroke:#E7E7E7;stroke-width:0.5;" x1="153.28" x2="339.3669" y1="236.49" y2="236.49"/><ellipse cx="163.28" cy="250.1384" fill="#84BE84" rx="3" ry="3" style="stroke:#038048;stroke-width:1;"/><text fill="#FFFFFF" font-family="sans-serif" font-size="14" lengthAdjust="spacing" textLength="162.0869" x="172.28" y="253.4851">String getDescripcion()</text><ellipse cx="163.28" cy="266.4353" fill="#84BE84" rx="3" ry="3" style="stroke:#038048;stroke-width:1;"/><text fill="#FFFFFF" font-family="sans-serif" font-size="14" lengthAdjust="spacing" textLength="150.1719" x="172.28" y="269.782">LocalDate getFecha()</text><ellipse cx="163.28" cy="282.7322" fill="#84BE84" rx="3" ry="3" style="stroke:#038048;stroke-width:1;"/><text fill="#FFFFFF" font-family="sans-serif" font-size="14" lengthAdjust="spacing" textLength="119.2666" x="172.28" y="286.0789">int getPrioridad()</text></g><!--class Observador--><g class="entity" data-entity="Observador" data-source-line="8" data-uid="ent0003" id="entity_Observador"><rect fill="#313139" height="64.2969" rx="2.5" ry="2.5" style="stroke:#E7E7E7;stroke-width:0.5;" width="210.2148" x="522.22" y="212.79"/><ellipse cx="582.2566" cy="228.79" fill="#352866" rx="11" ry="11" style="stroke:#E7E7E7;stroke-width:1;"/><path d="M578.1785,224.5556 L578.1785,222.3994 L585.5691,222.3994 L585.5691,224.5556 L583.1004,224.5556 L583.1004,232.6338 L585.5691,232.6338 L585.5691,234.79 L578.1785,234.79 L578.1785,232.6338 L580.6472,232.6338 L580.6472,224.5556 L578.1785,224.5556 Z " fill="#FFFFFF"/><text fill="#FFFFFF" font-family="sans-serif" font-size="14" font-style="italic" lengthAdjust="spacing" textLength="81.6416" x="602.7566" y="233.6367">Observador</text><line style="stroke:#E7E7E7;stroke-width:0.5;" x1="523.22" x2="731.4348" y1="244.79" y2="244.79"/><line style="stroke:#E7E7E7;stroke-width:0.5;" x1="523.22" x2="731.4348" y1="252.79" y2="252.79"/><ellipse cx="533.22" cy="266.4384" fill="#84BE84" rx="3" ry="3" style="stroke:#038048;stroke-width:1;"/><text fill="#FFFFFF" font-family="sans-serif" font-size="14" lengthAdjust="spacing" textLength="184.2148" x="542.22" y="269.7851">void notificar(Tarea tarea)</text></g><!--class EstrategiaOrdenamiento--><g class="entity" data-entity="EstrategiaOrdenamiento" data-source-line="12" data-uid="ent0004" id="entity_EstrategiaOrdenamiento"><rect fill="#313139" height="64.2969" rx="2.5" ry="2.5" style="stroke:#E7E7E7;stroke-width:0.5;" width="272.4287" x="839.11" y="212.79"/><ellipse cx="884.9655" cy="228.79" fill="#352866" rx="11" ry="11" style="stroke:#E7E7E7;stroke-width:1;"/><path d="M880.8873,224.5556 L880.8873,222.3994 L888.278,222.3994 L888.278,224.5556 L885.8092,224.5556 L885.8092,232.6338 L888.278,232.6338 L888.278,234.79 L880.8873,234.79 L880.8873,232.6338 L883.3561,232.6338 L883.3561,224.5556 L880.8873,224.5556 Z " fill="#FFFFFF"/><text fill="#FFFFFF" font-family="sans-serif" font-size="14" font-style="italic" lengthAdjust="spacing" textLength="172.2178" x="905.4655" y="233.6367">EstrategiaOrdenamiento</text><line style="stroke:#E7E7E7;stroke-width:0.5;" x1="840.11" x2="1110.5387" y1="244.79" y2="244.79"/><line style="stroke:#E7E7E7;stroke-width:0.5;" x1="840.11" x2="1110.5387" y1="252.79" y2="252.79"/><ellipse cx="850.11" cy="266.4384" fill="#84BE84" rx="3" ry="3" style="stroke:#038048;stroke-width:1;"/><text fill="#FFFFFF" font-family="sans-serif" font-size="14" lengthAdjust="spacing" textLength="246.4287" x="859.11" y="269.7851">List&lt;Tarea&gt; ordenar(List&lt;Tarea&gt;)</text></g><!--class TareaNormal--><g class="entity" data-entity="TareaNormal" data-source-line="17" data-uid="ent0005" id="entity_TareaNormal"><rect fill="#313139" height="48" rx="2.5" ry="2.5" style="stroke:#E7E7E7;stroke-width:0.5;" width="122.9795" x="23.84" y="353.38"/><ellipse cx="38.84" cy="369.38" fill="#2E5233" rx="11" ry="11" style="stroke:#E7E7E7;stroke-width:1;"/><path d="M41.8088,375.0206 Q41.2306,375.3175 40.59,375.4581 Q39.9494,375.6144 39.2463,375.6144 Q36.7463,375.6144 35.4181,373.9738 Q34.1056,372.3175 34.1056,369.1925 Q34.1056,366.0675 35.4181,364.4113 Q36.7463,362.755 39.2463,362.755 Q39.9494,362.755 40.59,362.9113 Q41.2463,363.0675 41.8088,363.3644 L41.8088,366.0831 Q41.1838,365.505 40.59,365.2394 Q39.9963,364.9581 39.3713,364.9581 Q38.0275,364.9581 37.34,366.0363 Q36.6525,367.0988 36.6525,369.1925 Q36.6525,371.2863 37.34,372.3644 Q38.0275,373.4269 39.3713,373.4269 Q39.9963,373.4269 40.59,373.1613 Q41.1838,372.88 41.8088,372.3019 L41.8088,375.0206 Z " fill="#FFFFFF"/><text fill="#FFFFFF" font-family="sans-serif" font-size="14" lengthAdjust="spacing" textLength="90.9795" x="52.84" y="374.2267">TareaNormal</text><line style="stroke:#E7E7E7;stroke-width:0.5;" x1="24.84" x2="145.8195" y1="385.38" y2="385.38"/><line style="stroke:#E7E7E7;stroke-width:0.5;" x1="24.84" x2="145.8195" y1="393.38" y2="393.38"/></g><!--class TareaUrgente--><g class="entity" data-entity="TareaUrgente" data-source-line="18" data-uid="ent0007" id="entity_TareaUrgente"><rect fill="#313139" height="48" rx="2.5" ry="2.5" style="stroke:#E7E7E7;stroke-width:0.5;" width="128.5576" x="182.05" y="353.38"/><ellipse cx="197.05" cy="369.38" fill="#2E5233" rx="11" ry="11" style="stroke:#E7E7E7;stroke-width:1;"/><path d="M200.0188,375.0206 Q199.4406,375.3175 198.8,375.4581 Q198.1594,375.6144 197.4563,375.6144 Q194.9563,375.6144 193.6281,373.9738 Q192.3156,372.3175 192.3156,369.1925 Q192.3156,366.0675 193.6281,364.4113 Q194.9563,362.755 197.4563,362.755 Q198.1594,362.755 198.8,362.9113 Q199.4563,363.0675 200.0188,363.3644 L200.0188,366.0831 Q199.3938,365.505 198.8,365.2394 Q198.2063,364.9581 197.5813,364.9581 Q196.2375,364.9581 195.55,366.0363 Q194.8625,367.0988 194.8625,369.1925 Q194.8625,371.2863 195.55,372.3644 Q196.2375,373.4269 197.5813,373.4269 Q198.2063,373.4269 198.8,373.1613 Q199.3938,372.88 200.0188,372.3019 L200.0188,375.0206 Z " fill="#FFFFFF"/><text fill="#FFFFFF" font-family="sans-serif" font-size="14" lengthAdjust="spacing" textLength="96.5576" x="211.05" y="374.2267">TareaUrgente</text><line style="stroke:#E7E7E7;stroke-width:0.5;" x1="183.05" x2="309.6076" y1="385.38" y2="385.38"/><line style="stroke:#E7E7E7;stroke-width:0.5;" x1="183.05" x2="309.6076" y1="393.38" y2="393.38"/></g><!--class TareaFactory--><g class="entity" data-entity="TareaFactory" data-source-line="21" data-uid="ent0009" id="entity_TareaFactory"><rect fill="#313139" height="64.2969" rx="2.5" ry="2.5" style="stroke:#E7E7E7;stroke-width:0.5;" width="440.6543" x="7" y="39.6"/><ellipse cx="176.8252" cy="55.6" fill="#2E5233" rx="11" ry="11" style="stroke:#E7E7E7;stroke-width:1;"/><path d="M179.7939,61.2406 Q179.2158,61.5375 178.5752,61.6781 Q177.9346,61.8344 177.2314,61.8344 Q174.7314,61.8344 173.4033,60.1938 Q172.0908,58.5375 172.0908,55.4125 Q172.0908,52.2875 173.4033,50.6313 Q174.7314,48.975 177.2314,48.975 Q177.9346,48.975 178.5752,49.1313 Q179.2314,49.2875 179.7939,49.5844 L179.7939,52.3031 Q179.1689,51.725 178.5752,51.4594 Q177.9814,51.1781 177.3564,51.1781 Q176.0127,51.1781 175.3252,52.2563 Q174.6377,53.3188 174.6377,55.4125 Q174.6377,57.5063 175.3252,58.5844 Q176.0127,59.6469 177.3564,59.6469 Q177.9814,59.6469 178.5752,59.3813 Q179.1689,59.1 179.7939,58.5219 L179.7939,61.2406 Z " fill="#FFFFFF"/><text fill="#FFFFFF" font-family="sans-serif" font-size="14" lengthAdjust="spacing" textLength="92.5039" x="197.3252" y="60.4467">TareaFactory</text><line style="stroke:#E7E7E7;stroke-width:0.5;" x1="8" x2="446.6543" y1="71.6" y2="71.6"/><line style="stroke:#E7E7E7;stroke-width:0.5;" x1="8" x2="446.6543" y1="79.6" y2="79.6"/><ellipse cx="18" cy="93.2484" fill="#84BE84" rx="3" ry="3" style="stroke:#038048;stroke-width:1;"/><text fill="#FFFFFF" font-family="sans-serif" font-size="14" lengthAdjust="spacing" textLength="414.6543" x="27" y="96.5951">Tarea crearTarea(String tipo, String desc, LocalDate fecha)</text></g><!--class TareaDecorator--><g class="entity" data-entity="TareaDecorator" data-source-line="26" data-uid="ent0010" id="entity_TareaDecorator"><rect fill="#313139" height="48" rx="2.5" ry="2.5" style="stroke:#E7E7E7;stroke-width:0.5;" width="141.8809" x="345.39" y="353.38"/><ellipse cx="360.39" cy="369.38" fill="#2A5D60" rx="11" ry="11" style="stroke:#E7E7E7;stroke-width:1;"/><path d="M360.4994,364.7238 L359.3431,369.8019 L361.6713,369.8019 L360.4994,364.7238 Z M359.015,362.4894 L361.9994,362.4894 L365.3588,374.88 L362.9056,374.88 L362.14,371.8175 L358.8588,371.8175 L358.1088,374.88 L355.6713,374.88 L359.015,362.4894 Z " fill="#FFFFFF"/><text fill="#FFFFFF" font-family="sans-serif" font-size="14" font-style="italic" lengthAdjust="spacing" textLength="109.8809" x="374.39" y="374.2267">TareaDecorator</text><line style="stroke:#E7E7E7;stroke-width:0.5;" x1="346.39" x2="486.2709" y1="385.38" y2="385.38"/><line style="stroke:#E7E7E7;stroke-width:0.5;" x1="346.39" x2="486.2709" y1="393.38" y2="393.38"/></g><!--class RecordatorioDecorator--><g class="entity" data-entity="RecordatorioDecorator" data-source-line="27" data-uid="ent0012" id="entity_RecordatorioDecorator"><rect fill="#313139" height="48" rx="2.5" ry="2.5" style="stroke:#E7E7E7;stroke-width:0.5;" width="191.8926" x="320.38" y="461.38"/><ellipse cx="335.38" cy="477.38" fill="#2E5233" rx="11" ry="11" style="stroke:#E7E7E7;stroke-width:1;"/><path d="M338.3488,483.0206 Q337.7706,483.3175 337.13,483.4581 Q336.4894,483.6144 335.7863,483.6144 Q333.2863,483.6144 331.9581,481.9738 Q330.6456,480.3175 330.6456,477.1925 Q330.6456,474.0675 331.9581,472.4113 Q333.2863,470.755 335.7863,470.755 Q336.4894,470.755 337.13,470.9113 Q337.7863,471.0675 338.3488,471.3644 L338.3488,474.0831 Q337.7238,473.505 337.13,473.2394 Q336.5363,472.9581 335.9113,472.9581 Q334.5675,472.9581 333.88,474.0363 Q333.1925,475.0988 333.1925,477.1925 Q333.1925,479.2863 333.88,480.3644 Q334.5675,481.4269 335.9113,481.4269 Q336.5363,481.4269 337.13,481.1613 Q337.7238,480.88 338.3488,480.3019 L338.3488,483.0206 Z " fill="#FFFFFF"/><text fill="#FFFFFF" font-family="sans-serif" font-size="14" lengthAdjust="spacing" textLength="159.8926" x="349.38" y="482.2267">RecordatorioDecorator</text><line style="stroke:#E7E7E7;stroke-width:0.5;" x1="321.38" x2="511.2726" y1="493.38" y2="493.38"/><line style="stroke:#E7E7E7;stroke-width:0.5;" x1="321.38" x2="511.2726" y1="501.38" y2="501.38"/></g><!--class ConsolaObservador--><g class="entity" data-entity="ConsolaObservador" data-source-line="30" data-uid="ent0014" id="entity_ConsolaObservador"><rect fill="#313139" height="48" rx="2.5" ry="2.5" style="stroke:#E7E7E7;stroke-width:0.5;" width="169.1836" x="542.74" y="353.38"/><ellipse cx="557.74" cy="369.38" fill="#2E5233" rx="11" ry="11" style="stroke:#E7E7E7;stroke-width:1;"/><path d="M560.7088,375.0206 Q560.1306,375.3175 559.49,375.4581 Q558.8494,375.6144 558.1463,375.6144 Q555.6463,375.6144 554.3181,373.9738 Q553.0056,372.3175 553.0056,369.1925 Q553.0056,366.0675 554.3181,364.4113 Q555.6463,362.755 558.1463,362.755 Q558.8494,362.755 559.49,362.9113 Q560.1463,363.0675 560.7088,363.3644 L560.7088,366.0831 Q560.0838,365.505 559.49,365.2394 Q558.8963,364.9581 558.2713,364.9581 Q556.9275,364.9581 556.24,366.0363 Q555.5525,367.0988 555.5525,369.1925 Q555.5525,371.2863 556.24,372.3644 Q556.9275,373.4269 558.2713,373.4269 Q558.8963,373.4269 559.49,373.1613 Q560.0838,372.88 560.7088,372.3019 L560.7088,375.0206 Z " fill="#FFFFFF"/><text fill="#FFFFFF" font-family="sans-serif" font-size="14" lengthAdjust="spacing" textLength="137.1836" x="571.74" y="374.2267">ConsolaObservador</text><line style="stroke:#E7E7E7;stroke-width:0.5;" x1="543.74" x2="710.9236" y1="385.38" y2="385.38"/><line style="stroke:#E7E7E7;stroke-width:0.5;" x1="543.74" x2="710.9236" y1="393.38" y2="393.38"/></g><!--class SistemaTareas--><g class="entity" data-entity="SistemaTareas" data-source-line="31" data-uid="ent0016" id="entity_SistemaTareas"><rect fill="#313139" height="129.4844" rx="2.5" ry="2.5" style="stroke:#E7E7E7;stroke-width:0.5;" width="289.3408" x="482.66" y="7"/><ellipse cx="571.1991" cy="23" fill="#2E5233" rx="11" ry="11" style="stroke:#E7E7E7;stroke-width:1;"/><path d="M574.1678,28.6406 Q573.5897,28.9375 572.9491,29.0781 Q572.3084,29.2344 571.6053,29.2344 Q569.1053,29.2344 567.7772,27.5938 Q566.4647,25.9375 566.4647,22.8125 Q566.4647,19.6875 567.7772,18.0313 Q569.1053,16.375 571.6053,16.375 Q572.3084,16.375 572.9491,16.5313 Q573.6053,16.6875 574.1678,16.9844 L574.1678,19.7031 Q573.5428,19.125 572.9491,18.8594 Q572.3553,18.5781 571.7303,18.5781 Q570.3866,18.5781 569.6991,19.6563 Q569.0116,20.7188 569.0116,22.8125 Q569.0116,24.9063 569.6991,25.9844 Q570.3866,27.0469 571.7303,27.0469 Q572.3553,27.0469 572.9491,26.7813 Q573.5428,26.5 574.1678,25.9219 L574.1678,28.6406 Z " fill="#FFFFFF"/><text fill="#FFFFFF" font-family="sans-serif" font-size="14" lengthAdjust="spacing" textLength="103.7627" x="591.6991" y="27.8467">SistemaTareas</text><line style="stroke:#E7E7E7;stroke-width:0.5;" x1="483.66" x2="771.0008" y1="39" y2="39"/><rect fill="none" height="6" style="stroke:#C82930;stroke-width:1;" width="6" x="490.66" y="49.6484"/><text fill="#FFFFFF" font-family="sans-serif" font-size="14" lengthAdjust="spacing" textLength="136.7734" x="502.66" y="55.9951">List&lt;Tarea&gt; tareas</text><rect fill="none" height="6" style="stroke:#C82930;stroke-width:1;" width="6" x="490.66" y="65.9453"/><text fill="#FFFFFF" font-family="sans-serif" font-size="14" lengthAdjust="spacing" textLength="229.1201" x="502.66" y="72.292">List&lt;Observador&gt; observadores</text><line style="stroke:#E7E7E7;stroke-width:0.5;" x1="483.66" x2="771.0008" y1="79.5938" y2="79.5938"/><ellipse cx="493.66" cy="93.2422" fill="#84BE84" rx="3" ry="3" style="stroke:#038048;stroke-width:1;"/><text fill="#FFFFFF" font-family="sans-serif" font-size="14" lengthAdjust="spacing" textLength="263.3408" x="502.66" y="96.5889">void agregarObservador(Observador)</text><ellipse cx="493.66" cy="109.5391" fill="#84BE84" rx="3" ry="3" style="stroke:#038048;stroke-width:1;"/><text fill="#FFFFFF" font-family="sans-serif" font-size="14" lengthAdjust="spacing" textLength="180.2158" x="502.66" y="112.8857">void agregarTarea(Tarea)</text><ellipse cx="493.66" cy="125.8359" fill="#84BE84" rx="3" ry="3" style="stroke:#038048;stroke-width:1;"/><text fill="#FFFFFF" font-family="sans-serif" font-size="14" lengthAdjust="spacing" textLength="173.749" x="502.66" y="129.1826">List&lt;Tarea&gt; getTareas()</text></g><!--class OrdenarPorPrioridad--><g class="entity" data-entity="OrdenarPorPrioridad" data-source-line="40" data-uid="ent0017" id="entity_OrdenarPorPrioridad"><rect fill="#313139" height="48" rx="2.5" ry="2.5" style="stroke:#E7E7E7;stroke-width:0.5;" width="174.8984" x="887.88" y="353.38"/><ellipse cx="902.88" cy="369.38" fill="#2E5233" rx="11" ry="11" style="stroke:#E7E7E7;stroke-width:1;"/><path d="M905.8488,375.0206 Q905.2706,375.3175 904.63,375.4581 Q903.9894,375.6144 903.2863,375.6144 Q900.7863,375.6144 899.4581,373.9738 Q898.1456,372.3175 898.1456,369.1925 Q898.1456,366.0675 899.4581,364.4113 Q900.7863,362.755 903.2863,362.755 Q903.9894,362.755 904.63,362.9113 Q905.2863,363.0675 905.8488,363.3644 L905.8488,366.0831 Q905.2238,365.505 904.63,365.2394 Q904.0363,364.9581 903.4113,364.9581 Q902.0675,364.9581 901.38,366.0363 Q900.6925,367.0988 900.6925,369.1925 Q900.6925,371.2863 901.38,372.3644 Q902.0675,373.4269 903.4113,373.4269 Q904.0363,373.4269 904.63,373.1613 Q905.2238,372.88 905.8488,372.3019 L905.8488,375.0206 Z " fill="#FFFFFF"/><text fill="#FFFFFF" font-family="sans-serif" font-size="14" lengthAdjust="spacing" textLength="142.8984" x="916.88" y="374.2267">OrdenarPorPrioridad</text><line style="stroke:#E7E7E7;stroke-width:0.5;" x1="888.88" x2="1061.7784" y1="385.38" y2="385.38"/><line style="stroke:#E7E7E7;stroke-width:0.5;" x1="888.88" x2="1061.7784" y1="393.38" y2="393.38"/></g><!--class Ordenador--><g class="entity" data-entity="Ordenador" data-source-line="41" data-uid="ent0019" id="entity_Ordenador"><rect fill="#313139" height="96.8906" rx="2.5" ry="2.5" style="stroke:#E7E7E7;stroke-width:0.5;" width="336.0371" x="807.31" y="23.3"/><ellipse cx="933.6108" cy="39.3" fill="#2E5233" rx="11" ry="11" style="stroke:#E7E7E7;stroke-width:1;"/><path d="M936.5795,44.9406 Q936.0014,45.2375 935.3608,45.3781 Q934.7202,45.5344 934.017,45.5344 Q931.517,45.5344 930.1889,43.8938 Q928.8764,42.2375 928.8764,39.1125 Q928.8764,35.9875 930.1889,34.3313 Q931.517,32.675 934.017,32.675 Q934.7202,32.675 935.3608,32.8313 Q936.017,32.9875 936.5795,33.2844 L936.5795,36.0031 Q935.9545,35.425 935.3608,35.1594 Q934.767,34.8781 934.142,34.8781 Q932.7983,34.8781 932.1108,35.9563 Q931.4233,37.0188 931.4233,39.1125 Q931.4233,41.2063 932.1108,42.2844 Q932.7983,43.3469 934.142,43.3469 Q934.767,43.3469 935.3608,43.0813 Q935.9545,42.8 936.5795,42.2219 L936.5795,44.9406 Z " fill="#FFFFFF"/><text fill="#FFFFFF" font-family="sans-serif" font-size="14" lengthAdjust="spacing" textLength="74.9355" x="954.1108" y="44.1467">Ordenador</text><line style="stroke:#E7E7E7;stroke-width:0.5;" x1="808.31" x2="1142.3471" y1="55.3" y2="55.3"/><rect fill="none" height="6" style="stroke:#C82930;stroke-width:1;" width="6" x="815.31" y="65.9484"/><text fill="#FFFFFF" font-family="sans-serif" font-size="14" lengthAdjust="spacing" textLength="247.8574" x="827.31" y="72.2951">EstrategiaOrdenamiento estrategia</text><line style="stroke:#E7E7E7;stroke-width:0.5;" x1="808.31" x2="1142.3471" y1="79.5969" y2="79.5969"/><ellipse cx="818.31" cy="93.2453" fill="#84BE84" rx="3" ry="3" style="stroke:#038048;stroke-width:1;"/><text fill="#FFFFFF" font-family="sans-serif" font-size="14" lengthAdjust="spacing" textLength="310.0371" x="827.31" y="96.592">void setEstrategia(EstrategiaOrdenamiento)</text><ellipse cx="818.31" cy="109.5422" fill="#84BE84" rx="3" ry="3" style="stroke:#038048;stroke-width:1;"/><text fill="#FFFFFF" font-family="sans-serif" font-size="14" lengthAdjust="spacing" textLength="246.4287" x="827.31" y="112.8889">List&lt;Tarea&gt; ordenar(List&lt;Tarea&gt;)</text></g><!--reverse link Tarea to TareaNormal--><g class="link" data-entity-1="Tarea" data-entity-2="TareaNormal" data-source-line="17" data-uid="lnk6" id="link_Tarea_TareaNormal"><path d="M160.7549,304.838 C134.8349,325.048 121.87,336.6 104.08,353.05" fill="none" id="Tarea-backto-TareaNormal" style="stroke:#E7E7E7;stroke-width:1;stroke-dasharray:7.0,7.0;"/><polygon fill="none" points="174.95,293.77,157.0656,300.1063,164.4443,309.5697,174.95,293.77" style="stroke:#E7E7E7;stroke-width:1;"/></g><!--link TareaNormal to Tarea--><g class="link" data-entity-1="TareaNormal" data-entity-2="Tarea" data-source-line="49" data-uid="lnk21" id="link_TareaNormal_Tarea"><path codeLine="49" d="M124.75,353.05 C147.72,336.6 162.6905,325.5969 186.6105,305.3869" fill="none" id="TareaNormal-to-Tarea" style="stroke:#E7E7E7;stroke-width:1;stroke-dasharray:7.0,7.0;"/><polygon fill="none" points="200.36,293.77,182.7382,300.8038,190.4828,309.9701,200.36,293.77" style="stroke:#E7E7E7;stroke-width:1;"/></g><!--reverse link Tarea to TareaUrgente--><g class="link" data-entity-1="Tarea" data-entity-2="TareaUrgente" data-source-line="18" data-uid="lnk8" id="link_Tarea_TareaUrgente"><path d="M233.1182,311.7489 C232.1382,331.9589 233.78,336.6 236.28,353.05" fill="none" id="Tarea-backto-TareaUrgente" style="stroke:#E7E7E7;stroke-width:1;stroke-dasharray:7.0,7.0;"/><polygon fill="none" points="233.99,293.77,227.1252,311.4583,239.1111,312.0395,233.99,293.77" style="stroke:#E7E7E7;stroke-width:1;"/></g><!--link TareaUrgente to Tarea--><g class="link" data-entity-1="TareaUrgente" data-entity-2="Tarea" data-source-line="50" data-uid="lnk22" id="link_TareaUrgente_Tarea"><path codeLine="50" d="M256.96,353.05 C259.62,336.6 261.3551,331.9562 260.3151,311.7462" fill="none" id="TareaUrgente-to-Tarea" style="stroke:#E7E7E7;stroke-width:1;stroke-dasharray:7.0,7.0;"/><polygon fill="none" points="259.39,293.77,254.323,312.0546,266.3071,311.4379,259.39,293.77" style="stroke:#E7E7E7;stroke-width:1;"/></g><!--reverse link Tarea to TareaDecorator--><g class="link" data-entity-1="Tarea" data-entity-2="TareaDecorator" data-source-line="26" data-uid="lnk11" id="link_Tarea_TareaDecorator"><path d="M310.4067,304.9881 C335.7667,325.1981 351.93,336.6 375.88,353.05" fill="none" id="Tarea-backto-TareaDecorator" style="stroke:#E7E7E7;stroke-width:1;stroke-dasharray:7.0,7.0;"/><polygon fill="none" points="296.33,293.77,306.6674,309.6803,314.1461,300.2958,296.33,293.77" style="stroke:#E7E7E7;stroke-width:1;"/></g><!--link TareaDecorator to Tarea--><g class="link" data-entity-1="TareaDecorator" data-entity-2="Tarea" data-source-line="52" data-uid="lnk23" id="link_TareaDecorator_Tarea"><path codeLine="52" d="M396.56,353.05 C377.77,336.6 363.5921,324.6697 336.2121,304.4597" fill="none" id="TareaDecorator-to-Tarea" style="stroke:#E7E7E7;stroke-width:1;stroke-dasharray:7.0,7.0;"/><polygon fill="none" points="321.73,293.77,332.6489,309.287,339.7753,299.6323,321.73,293.77" style="stroke:#E7E7E7;stroke-width:1;"/></g><!--reverse link TareaDecorator to RecordatorioDecorator--><g class="link" data-entity-1="TareaDecorator" data-entity-2="RecordatorioDecorator" data-source-line="27" data-uid="lnk13" id="link_TareaDecorator_RecordatorioDecorator"><path d="M402.8918,419.4411 C400.2418,437.1211 402.92,443.51 405.57,461.17" fill="none" id="TareaDecorator-backto-RecordatorioDecorator" style="stroke:#E7E7E7;stroke-width:1;"/><polygon fill="none" points="405.56,401.64,396.9581,418.5518,408.8256,420.3305,405.56,401.64" style="stroke:#E7E7E7;stroke-width:1;"/></g><!--link RecordatorioDecorator to TareaDecorator--><g class="link" data-entity-1="RecordatorioDecorator" data-entity-2="TareaDecorator" data-source-line="53" data-uid="lnk24" id="link_RecordatorioDecorator_TareaDecorator"><path codeLine="53" d="M427.72,461.17 C430.53,443.51 431.4685,425.2461 428.6685,407.5661" fill="none" id="RecordatorioDecorator-to-TareaDecorator" style="stroke:#E7E7E7;stroke-width:1;"/><polygon fill="#E7E7E7" points="427.73,401.64,425.187,411.1549,428.5121,406.5785,433.0886,409.9035,427.73,401.64" style="stroke:#E7E7E7;stroke-width:1;"/></g><!--reverse link Observador to ConsolaObservador--><g class="link" data-entity-1="Observador" data-entity-2="ConsolaObservador" data-source-line="30" data-uid="lnk15" id="link_Observador_ConsolaObservador"><path d="M614.2986,295.4072 C611.7886,318.7872 614.07,332.2 617.32,353.27" fill="none" id="Observador-backto-ConsolaObservador" style="stroke:#E7E7E7;stroke-width:1;stroke-dasharray:7.0,7.0;"/><polygon fill="none" points="616.22,277.51,608.3329,294.7667,620.2643,296.0476,616.22,277.51" style="stroke:#E7E7E7;stroke-width:1;"/></g><!--link ConsolaObservador to Observador--><g class="link" data-entity-1="ConsolaObservador" data-entity-2="Observador" data-source-line="57" data-uid="lnk27" id="link_ConsolaObservador_Observador"><path codeLine="57" d="M637.92,353.27 C641.36,332.2 643.7923,318.7738 641.1223,295.3938" fill="none" id="ConsolaObservador-to-Observador" style="stroke:#E7E7E7;stroke-width:1;stroke-dasharray:7.0,7.0;"/><polygon fill="none" points="639.08,277.51,635.1611,296.0745,647.0836,294.713,639.08,277.51" style="stroke:#E7E7E7;stroke-width:1;"/></g><!--reverse link EstrategiaOrdenamiento to OrdenarPorPrioridad--><g class="link" data-entity-1="EstrategiaOrdenamiento" data-entity-2="OrdenarPorPrioridad" data-source-line="40" data-uid="lnk18" id="link_EstrategiaOrdenamiento_OrdenarPorPrioridad"><path d="M962.2986,295.4072 C959.7886,318.7872 962.07,332.2 965.32,353.27" fill="none" id="EstrategiaOrdenamiento-backto-OrdenarPorPrioridad" style="stroke:#E7E7E7;stroke-width:1;stroke-dasharray:7.0,7.0;"/><polygon fill="none" points="964.22,277.51,956.3329,294.7667,968.2643,296.0476,964.22,277.51" style="stroke:#E7E7E7;stroke-width:1;"/></g><!--link OrdenarPorPrioridad to EstrategiaOrdenamiento--><g class="link" data-entity-1="OrdenarPorPrioridad" data-entity-2="EstrategiaOrdenamiento" data-source-line="60" data-uid="lnk29" id="link_OrdenarPorPrioridad_EstrategiaOrdenamiento"><path codeLine="60" d="M985.92,353.27 C989.36,332.2 991.7923,318.7738 989.1223,295.3938" fill="none" id="OrdenarPorPrioridad-to-EstrategiaOrdenamiento" style="stroke:#E7E7E7;stroke-width:1;stroke-dasharray:7.0,7.0;"/><polygon fill="none" points="987.08,277.51,983.1611,296.0745,995.0836,294.713,987.08,277.51" style="stroke:#E7E7E7;stroke-width:1;"/></g><!--link TareaFactory to Tarea--><g class="link" data-entity-1="TareaFactory" data-entity-2="Tarea" data-source-line="48" data-uid="lnk20" id="link_TareaFactory_Tarea"><path codeLine="48" d="M230.81,104.15 C233.67,129.92 237.1092,160.8665 240.3692,190.2865" fill="none" id="TareaFactory-to-Tarea" style="stroke:#E7E7E7;stroke-width:1;"/><polygon fill="#E7E7E7" points="241.03,196.25,244.0145,186.8642,240.4793,191.2804,236.0631,187.7453,241.03,196.25" style="stroke:#E7E7E7;stroke-width:1;"/></g><!--link SistemaTareas to Tarea--><g class="link" data-entity-1="SistemaTareas" data-entity-2="Tarea" data-source-line="55" data-uid="lnk25" id="link_SistemaTareas_Tarea"><path codeLine="55" d="M484.37,136.98 C436.34,158.56 389.4626,179.6202 346.1226,199.1002" fill="none" id="SistemaTareas-to-Tarea" style="stroke:#E7E7E7;stroke-width:1;"/><polygon fill="#E7E7E7" points="340.65,201.56,350.4988,201.5188,345.2105,199.5102,347.2191,194.2219,340.65,201.56" style="stroke:#E7E7E7;stroke-width:1;"/><text fill="#FFFFFF" font-family="sans-serif" font-size="13" lengthAdjust="spacing" textLength="6.5" x="348.4256" y="194.5781">*</text></g><!--link SistemaTareas to Observador--><g class="link" data-entity-1="SistemaTareas" data-entity-2="Observador" data-source-line="56" data-uid="lnk26" id="link_SistemaTareas_Observador"><path codeLine="56" d="M627.33,136.98 C627.33,162.78 627.33,185.36 627.33,206.47" fill="none" id="SistemaTareas-to-Observador" style="stroke:#E7E7E7;stroke-width:1;"/><polygon fill="#E7E7E7" points="627.33,212.47,631.33,203.47,627.33,207.47,623.33,203.47,627.33,212.47" style="stroke:#E7E7E7;stroke-width:1;"/><text fill="#FFFFFF" font-family="sans-serif" font-size="13" lengthAdjust="spacing" textLength="6.5" x="620.7891" y="201.6812">*</text></g><!--link Ordenador to EstrategiaOrdenamiento--><g class="link" data-entity-1="Ordenador" data-entity-2="EstrategiaOrdenamiento" data-source-line="59" data-uid="lnk28" id="link_Ordenador_EstrategiaOrdenamiento"><path codeLine="59" d="M975.33,120.43 C975.33,149.82 975.33,180.67 975.33,206.43" fill="none" id="Ordenador-to-EstrategiaOrdenamiento" style="stroke:#E7E7E7;stroke-width:1;"/><polygon fill="#E7E7E7" points="975.33,212.43,979.33,203.43,975.33,207.43,971.33,203.43,975.33,212.43" style="stroke:#E7E7E7;stroke-width:1;"/></g><!--SRC=[ZLFRJi9047tlLsnyeIZu1OONaSG4Bn7yW75tg9kq7JAx8HhrtzqRxL9Buakpd3bpvdQOYFlM8kz0eYdqyIcsm0ZYgn3YQcDPjvMeq2xHIDPxgQajfpwq9Wdr4Ypww0hbEqJSwNZacJMnLg0S-bDawazl1la0YZYME91MeYMhTre2bx6uzTz1ufsnxCfL6fvOOGkDnjPI55bhOsz2wa9GY7APOK5f8Xv8OKsca3KO4yTy96wW5hhPrzWulGJdb5UkN03_SfpY2gGb_ipf2OfznMca-t1ubccXLkzf9j8FvLOx4_q-TtwPgUKbId9J4nVmvkUNLcIrkkYv0LuyGNc6ffwC7nPRDTJmvU9na5FwBRM6QiXEbjNfqSJUk8LZ0q7LXFdd-Lt2JKs7zkdkPDqRJUS9g1Whu9vNzi_fa1Mtkuss6HZ2kJ7sLAQbRgAHZcUBTk9duiwq-PpZlZl9FPfvViQZsC5TtmPjJox7ywR_j_OBrk3_csv_9owSpnV94BdThw-_J-2ZnJEy61Wi2usRggkK6UhK4PvnSNcHLCPZcQd-cY_qa36AVli-_yoXniuRbCRvlm00]--></g></svg>